<?xml version="1.0" encoding="UTF-8"?>
<svg width="44px" height="44px" viewBox="0 0 44 44" version="1.1" xmlns="http://www.w3.org/2000/svg" xmlns:xlink="http://www.w3.org/1999/xlink">
    <!-- Generator: Sketch 41 (35326) - http://www.bohemiancoding.com/sketch -->
    <title>intro-devices</title>
    <desc>Created with Sketch.</desc>
    <defs></defs>
    <g id="Welcome" stroke="none" stroke-width="1" fill="none" fill-rule="evenodd">
        <g id="Artboard" transform="translate(-155.000000, -67.000000)" fill="#000000">
            <path d="M192,83 L192,77.991155 C192,76.8896739 191.104605,76 190.00008,76 L159.99992,76 C158.891941,76 158,76.8914705 158,77.991155 L158,98 L186,98 L186,85.9950893 C186,84.3435166 187.345318,83 188.992017,83 L192,83 Z M186,99 L155,99 L155.52343,100.57029 C155.787926,101.363777 156.672177,102 157.501349,102 L186.760187,102 C186.287368,101.470323 186,100.771245 186,100.004911 L186,99 Z M172,99 L178,99 L178,100 L172,100 L172,99 Z M187,85.9950893 C187,84.8932319 187.900176,84 188.992017,84 L196.007983,84 C197.108144,84 198,84.8926228 198,85.9950893 L198,100.004911 C198,101.106768 197.099824,102 196.007983,102 L188.992017,102 C187.891856,102 187,101.107377 187,100.004911 L187,85.9950893 Z M189,88 L196,88 L196,98 L189,98 L189,88 Z" id="Combined-Shape"></path>
        </g>
    </g>
</svg>