<?xml version="1.0" encoding="UTF-8"?>
<svg width="44px" height="44px" viewBox="0 0 44 44" version="1.1" xmlns="http://www.w3.org/2000/svg" xmlns:xlink="http://www.w3.org/1999/xlink">
    <!-- Generator: Sketch 41 (35326) - http://www.bohemiancoding.com/sketch -->
    <title>intro-cloud</title>
    <desc>Created with Sketch.</desc>
    <defs></defs>
    <g id="Welcome" stroke="none" stroke-width="1" fill="none" fill-rule="evenodd">
        <g id="Artboard" transform="translate(-23.000000, -69.000000)" fill="#000000">
            <path d="M32.380657,86.3723577 C32.4418771,86.3710351 32.5032653,86.3703704 32.5648148,86.3703704 C34.7677201,86.3703704 38.014101,89.9592251 38.014101,89.9592251 C38.2491851,90.281423 38.4782618,90.6120518 38.7037037,90.945091 C38.7037037,90.945091 38.9963296,90.5486076 39.4797708,89.9890862 C39.4797708,89.9890862 43.071044,86.3703704 44.8425926,86.3703704 C49.4287037,86.3703704 53.1481481,90.0717593 53.1481481,94.6759259 C53.1481481,98.509839 50.9053793,102.409234 46.7160137,106 L35,106 C29.4802517,105.62963 25,101.515 25,96 C25,91.3961627 28.136727,87.5296814 32.380657,86.3723577 Z M32.9201756,85.3902012 C34.3048955,80.0011111 39.1826544,76 45,76 C51.8925,76 57.5,81.6075 57.5,88.5 L57.5,91 C61.635,91 65,94.365 65,98.5 C65,102.635 61.9234664,105.62963 57.5,106 L48.2205751,106 C52.0801715,102.430201 54.1481481,98.5492713 54.1481481,94.6759259 C54.1481481,89.5253733 49.9868971,85.3703704 44.8425926,85.3703704 C44.038762,85.3703704 43.1409123,85.7778661 42.0826241,86.4951124 C41.6914483,86.7602286 41.2852053,87.0649829 40.8682364,87.4020113 C40.3587576,87.8138137 39.8585572,88.2528625 39.3871468,88.6917887 C39.1035882,88.9558077 38.8909844,89.1627446 38.7557065,89.2883888 C38.6429063,89.1636889 38.444665,88.9546656 38.1771135,88.6889412 C37.7332608,88.2481196 37.2533244,87.8072927 36.75213,87.3935892 C36.0756378,86.8351888 35.4116587,86.3687571 34.7694667,86.0233822 C34.1225434,85.6754627 33.5080843,85.4548281 32.9201756,85.3902012 Z" id="Combined-Shape"></path>
        </g>
    </g>
</svg>