<?xml version="1.0" encoding="UTF-8"?>
<svg width="44px" height="44px" viewBox="0 0 44 44" version="1.1" xmlns="http://www.w3.org/2000/svg" xmlns:xlink="http://www.w3.org/1999/xlink">
    <!-- Generator: Sketch 41 (35326) - http://www.bohemiancoding.com/sketch -->
    <title>intro-folder</title>
    <desc>Created with Sketch.</desc>
    <defs></defs>
    <g id="Welcome" stroke="none" stroke-width="1" fill="none" fill-rule="evenodd">
        <g id="Artboard" transform="translate(-93.000000, -72.000000)" fill="#000000">
            <path d="M95,109.08 C95,110.1296 95.8933333,111 97,111 L133,111 C134.106667,111 135,110.1296 135,109.08 L135,82.2 C135,81.1376 134.106667,79 133,79 L110.8,79 L95,79 L95,84.76 L95,109.08 Z M95,77 C95,76.4477153 95.4489202,76 96.007484,76 L110,76 L113,78 L95,78 L95,77 Z M114.582665,90.7182282 C114.582665,90.7182282 115.301671,89.9975036 115.247679,89.9198476 C115.975037,89.1178602 117.177671,88 118.230298,88 C120.955295,88 123.165331,90.199308 123.165331,92.9350326 C123.165331,95.3274506 121.695549,97.7627819 118.959825,99.9835466 C117.457858,101.238761 115.816424,102.21504 114.883059,102.66563 C114.797232,102.708543 114.582665,102.73 114.582665,102.73 C114.582665,102.73 114.389555,102.708543 114.282272,102.676358 C113.348907,102.21504 111.707473,101.238761 110.205506,99.9942749 C107.469781,97.7627819 106,95.3167223 106,92.9350326 C106,90.2100363 108.199308,88 110.935033,88 C112.243965,88 113.175804,88.830744 113.975954,89.8694469 C113.890618,89.9755822 114.448711,90.5203415 114.582665,90.7182282 Z" id="Combined-Shape"></path>
        </g>
    </g>
</svg>