<?xml version="1.0" encoding="UTF-8"?>
<svg width="94px" height="11px" viewBox="0 0 94 11" version="1.1" xmlns="http://www.w3.org/2000/svg" xmlns:xlink="http://www.w3.org/1999/xlink">
    <!-- Generator: Sketch 41 (35326) - http://www.bohemiancoding.com/sketch -->
    <title>RAINDROP</title>
    <desc>Created with Sketch.</desc>
    <defs></defs>
    <g id="Welcome" stroke="none" stroke-width="1" fill="none" fill-rule="evenodd">
        <g transform="translate(-24.000000, -24.000000)" id="RAINDROP" fill="#000000">
            <path d="M32.226087,34.8086957 L29.627536,30.6318841 C30.902899,30.4246377 32.146377,29.4043478 32.146377,27.5072464 C32.146377,25.5463768 30.775362,24.1753623 28.671014,24.1753623 L24,24.1753623 L24,34.8086957 L25.865217,34.8086957 L25.865217,30.8391304 L27.714493,30.8391304 L30.073913,34.8086957 L32.226087,34.8086957 L32.226087,34.8086957 Z M28.415942,29.1971014 L25.865217,29.1971014 L25.865217,25.8173913 L28.415942,25.8173913 C29.468116,25.8173913 30.233333,26.4869565 30.233333,27.5072464 C30.233333,28.5275362 29.468116,29.1971014 28.415942,29.1971014 L28.415942,29.1971014 L28.415942,29.1971014 Z M43.576812,34.8086957 L39.4,24.1753623 L37.072464,24.1753623 L32.895652,34.8086957 L35.015942,34.8086957 L35.797101,32.7681159 L40.675362,32.7681159 L41.456522,34.8086957 L43.576812,34.8086957 L43.576812,34.8086957 Z M40.149275,31.126087 L36.323188,31.126087 L38.236232,26.0565217 L40.149275,31.126087 L40.149275,31.126087 Z M46.605797,34.8086957 L46.605797,24.1753623 L44.74058,24.1753623 L44.74058,34.8086957 L46.605797,34.8086957 L46.605797,34.8086957 Z M58.084058,34.8086957 L58.084058,24.1753623 L56.218841,24.1753623 L56.218841,31.5565217 L50.782609,24.1753623 L48.869565,24.1753623 L48.869565,34.8086957 L50.734783,34.8086957 L50.734783,27.2202899 L56.282609,34.8086957 L58.084058,34.8086957 L58.084058,34.8086957 Z M64.301449,34.8086957 C67.617391,34.8086957 69.865217,32.6246377 69.865217,29.5 C69.865217,26.3753623 67.617391,24.1753623 64.301449,24.1753623 L60.347826,24.1753623 L60.347826,34.8086957 L64.301449,34.8086957 L64.301449,34.8086957 Z M64.301449,33.1666667 L62.213043,33.1666667 L62.213043,25.8173913 L64.301449,25.8173913 C66.676812,25.8173913 67.952174,27.4434783 67.952174,29.5 C67.952174,31.5086957 66.613043,33.1666667 64.301449,33.1666667 L64.301449,33.1666667 L64.301449,33.1666667 Z M79.892754,34.8086957 L77.294203,30.6318841 C78.569565,30.4246377 79.813043,29.4043478 79.813043,27.5072464 C79.813043,25.5463768 78.442029,24.1753623 76.337681,24.1753623 L71.666667,24.1753623 L71.666667,34.8086957 L73.531884,34.8086957 L73.531884,30.8391304 L75.381159,30.8391304 L77.74058,34.8086957 L79.892754,34.8086957 L79.892754,34.8086957 Z M76.082609,29.1971014 L73.531884,29.1971014 L73.531884,25.8173913 L76.082609,25.8173913 C77.134783,25.8173913 77.9,26.4869565 77.9,27.5072464 C77.9,28.5275362 77.134783,29.1971014 76.082609,29.1971014 L76.082609,29.1971014 L76.082609,29.1971014 Z M86.636232,35 C89.824638,35 92.072464,32.6724638 92.072464,29.5 C92.072464,26.3275362 89.824638,24 86.636232,24 C83.447826,24 81.2,26.3275362 81.2,29.5 C81.2,32.6724638 83.447826,35 86.636232,35 L86.636232,35 L86.636232,35 Z M86.636232,33.342029 C84.484058,33.342029 83.113043,31.684058 83.113043,29.5 C83.113043,27.3 84.484058,25.657971 86.636232,25.657971 C88.772464,25.657971 90.15942,27.3 90.15942,29.5 C90.15942,31.684058 88.772464,33.342029 86.636232,33.342029 L86.636232,33.342029 L86.636232,33.342029 Z M95.73913,34.8086957 L95.73913,30.8391304 L98.544928,30.8391304 C100.76087,30.8391304 102.02029,29.3086957 102.02029,27.5072464 C102.02029,25.7057971 100.776812,24.1753623 98.544928,24.1753623 L93.873913,24.1753623 L93.873913,34.8086957 L95.73913,34.8086957 L95.73913,34.8086957 Z M98.289855,29.1971014 L95.73913,29.1971014 L95.73913,25.8173913 L98.289855,25.8173913 C99.342029,25.8173913 100.107246,26.4869565 100.107246,27.5072464 C100.107246,28.5275362 99.342029,29.1971014 98.289855,29.1971014 L98.289855,29.1971014 Z M108,24 L109,24 L109,31 L108,31 L108,24 L108,24 Z M104,26 C104.552285,26 105,25.5522847 105,25 C105,24.4477153 104.552285,24 104,24 C103.447715,24 103,24.4477153 103,25 C103,25.5522847 103.447715,26 104,26 L104,26 Z M114.5,31 C112.567003,31 111,29.4329966 111,27.5 C111,25.5670034 112.567003,24 114.5,24 C116.432997,24 118,25.5670034 118,27.5 C118,29.4329966 116.432997,31 114.5,31 L114.5,31 Z M114.5,30 C115.880712,30 117,28.8807119 117,27.5 C117,26.1192881 115.880712,25 114.5,25 C113.119288,25 112,26.1192881 112,27.5 C112,28.8807119 113.119288,30 114.5,30 L114.5,30 Z"></path>
        </g>
    </g>
</svg>