<?xml version="1.0" encoding="UTF-8"?>
<svg width="10px" height="10px" viewBox="0 0 10 10" version="1.1" xmlns="http://www.w3.org/2000/svg" xmlns:xlink="http://www.w3.org/1999/xlink">
    <!-- Generator: Sketch 42 (36781) - http://www.bohemiancoding.com/sketch -->
    <title>micro-tag</title>
    <desc>Created with Sketch.</desc>
    <defs></defs>
    <g id="Welcome" stroke="none" stroke-width="1" fill="none" fill-rule="evenodd">
        <g id="Artboard" transform="translate(-52.000000, -32.000000)" fill-rule="nonzero" fill="#000000">
            <path d="M58.209209,39.0000638 L55.219362,39.0000638 L54.994975,40.5707748 C54.955922,40.8441418 54.702656,41.0340908 54.429289,40.9950388 C54.155922,40.9559858 53.965973,40.7027198 54.005025,40.4293528 L54.209209,39.0000638 L52.509666,39.0000638 C52.228185,39.0000638 52,38.7681298 52,38.5000638 C52,38.2239218 52.222473,38.0000638 52.509666,38.0000638 L54.352067,38.0000638 L54.637781,36.0000638 L53.509666,36.0000638 C53.228185,36.0000638 53,35.7681298 53,35.5000638 C53,35.2239218 53.222473,35.0000638 53.509666,35.0000638 L54.780638,35.0000638 L55.005025,33.4293528 C55.044078,33.1559858 55.297344,32.9660368 55.570711,33.0050888 C55.844078,33.0441418 56.034027,33.2974078 55.994975,33.5707748 L55.790791,35.0000638 L58.780638,35.0000638 L59.005025,33.4293528 C59.044078,33.1559858 59.297344,32.9660368 59.570711,33.0050888 C59.844078,33.0441418 60.034027,33.2974078 59.994975,33.5707748 L59.790791,35.0000638 L61.490334,35.0000638 C61.771815,35.0000638 62,35.2319978 62,35.5000638 C62,35.7762058 61.777527,36.0000638 61.490334,36.0000638 L59.647933,36.0000638 L59.362219,38.0000638 L60.490334,38.0000638 C60.771815,38.0000638 61,38.2319978 61,38.5000638 C61,38.7762058 60.777527,39.0000638 60.490334,39.0000638 L59.219362,39.0000638 L58.994975,40.5707748 C58.955922,40.8441418 58.702656,41.0340908 58.429289,40.9950388 C58.155922,40.9559858 57.965973,40.7027198 58.005025,40.4293528 L58.209209,39.0000638 Z M58.352067,38.0000638 L58.637781,36.0000638 L55.647933,36.0000638 L55.362219,38.0000638 L58.352067,38.0000638 Z" id="Combined-Shape"></path>
        </g>
    </g>
</svg>