<?xml version="1.0" encoding="UTF-8"?>
<svg width="10px" height="10px" viewBox="0 0 10 10" version="1.1" xmlns="http://www.w3.org/2000/svg" xmlns:xlink="http://www.w3.org/1999/xlink">
    <!-- Generator: Sketch 41.1 (35376) - http://www.bohemiancoding.com/sketch -->
    <title>micro-close</title>
    <desc>Created with Sketch.</desc>
    <defs></defs>
    <g id="Welcome" stroke="none" stroke-width="1" fill="none" fill-rule="evenodd">
        <g id="Artboard" transform="translate(-52.000000, -12.000000)" fill="#000000">
            <path d="M55.7928932,16.5 L54.1464466,14.8535534 C53.9511845,14.6582912 53.9511845,14.3417088 54.1464466,14.1464466 C54.3417088,13.9511845 54.6582912,13.9511845 54.8535534,14.1464466 L56.5,15.7928932 L58.1464466,14.1464466 C58.3417088,13.9511845 58.6582912,13.9511845 58.8535534,14.1464466 C59.0488155,14.3417088 59.0488155,14.6582912 58.8535534,14.8535534 L57.2071068,16.5 L58.8535534,18.1464466 C59.0488155,18.3417088 59.0488155,18.6582912 58.8535534,18.8535534 C58.6582912,19.0488155 58.3417088,19.0488155 58.1464466,18.8535534 L56.5,17.2071068 L54.8535534,18.8535534 C54.6582912,19.0488155 54.3417088,19.0488155 54.1464466,18.8535534 C53.9511845,18.6582912 53.9511845,18.3417088 54.1464466,18.1464466 L55.7928932,16.5 Z M56.5,21 C58.9852814,21 61,18.9852814 61,16.5 C61,14.0147186 58.9852814,12 56.5,12 C54.0147186,12 52,14.0147186 52,16.5 C52,18.9852814 54.0147186,21 56.5,21 Z" id="Combined-Shape"></path>
        </g>
    </g>
</svg>