<?xml version="1.0" encoding="UTF-8"?>
<svg width="10px" height="10px" viewBox="0 0 10 10" version="1.1" xmlns="http://www.w3.org/2000/svg" xmlns:xlink="http://www.w3.org/1999/xlink">
    <!-- Generator: Sketch 41.2 (35397) - http://www.bohemiancoding.com/sketch -->
    <title>micro-indicator</title>
    <desc>Created with Sketch.</desc>
    <defs></defs>
    <g id="Welcome" stroke="none" stroke-width="1" fill="none" fill-rule="evenodd">
        <g id="Artboard" transform="translate(-32.000000, -52.000000)" fill="#000000">
            <g id="idicator-copy" transform="translate(33.000000, 52.000000)">
                <g id="Group-9">
                    <path d="M3.5,2 C1.56700338,2 0,3.56700338 0,5.5 C0,5.77614237 0.223857625,6 0.5,6 C0.776142375,6 1,5.77614237 1,5.5 C1,4.11928813 2.11928813,3 3.5,3 C3.77614237,3 4,2.77614237 4,2.5 C4,2.22385763 3.77614237,2 3.5,2 Z" id="Oval-9" opacity="0.699999988"></path>
                    <polygon id="Rectangle-3" points="3 0.5 5.5 2.5 3 4.5"></polygon>
                </g>
                <g id="Group-9-Copy-2" transform="translate(5.000000, 7.000000) scale(-1, -1) translate(-5.000000, -7.000000) translate(2.000000, 4.000000)">
                    <path d="M3.5,2 C1.56700338,2 0,3.56700338 0,5.5 C0,5.77614237 0.223857625,6 0.5,6 C0.776142375,6 1,5.77614237 1,5.5 C1,4.11928813 2.11928813,3 3.5,3 C3.77614237,3 4,2.77614237 4,2.5 C4,2.22385763 3.77614237,2 3.5,2 Z" id="Oval-9" opacity="0.699999988"></path>
                    <polygon id="Rectangle-3" points="3 0.5 5.5 2.5 3 4.5"></polygon>
                </g>
            </g>
        </g>
    </g>
</svg>