<?xml version="1.0" encoding="UTF-8"?>
<svg width="20px" height="20px" viewBox="0 0 20 20" version="1.1" xmlns="http://www.w3.org/2000/svg" xmlns:xlink="http://www.w3.org/1999/xlink">
    <!-- Generator: Sketch 41.2 (35397) - http://www.bohemiancoding.com/sketch -->
    <title>normal-clear</title>
    <desc>Created with Sketch.</desc>
    <defs></defs>
    <g id="Welcome" stroke="none" stroke-width="1" fill="none" fill-rule="evenodd">
        <g id="Artboard" transform="translate(-138.000000, -11.000000)" fill="#000000">
            <g id="Group-3-Copy" transform="translate(139.000000, 12.000000)">
                <circle id="Oval-2" opacity="0.14" cx="9" cy="9" r="9"></circle>
                <path d="M13.35,12.65 C13.55,12.85 13.55,13.17 13.35,13.35 C13.15,13.55 12.85,13.55 12.65,13.35 L9.25,9.95 L5.85,13.35 C5.65,13.55 5.33,13.55 5.15,13.35 C4.95,13.17 4.95,12.85 5.15,12.65 L8.55,9.25 L5.15,5.85 C4.95,5.65 4.95,5.35 5.15,5.15 C5.33,4.95 5.65,4.95 5.85,5.15 L9.25,8.55 L12.65,5.15 C12.85,4.95 13.15,4.95 13.35,5.15 C13.55,5.35 13.55,5.65 13.35,5.85 L9.95,9.25 L13.35,12.65 Z" id="Combined-Shape"></path>
            </g>
        </g>
    </g>
</svg>