<?xml version="1.0" encoding="UTF-8"?>
<svg width="20px" height="20px" viewBox="0 0 20 20" version="1.1" xmlns="http://www.w3.org/2000/svg" xmlns:xlink="http://www.w3.org/1999/xlink">
    <!-- Generator: Sketch 42 (36781) - http://www.bohemiancoding.com/sketch -->
    <title>normal-like-active</title>
    <desc>Created with Sketch.</desc>
    <defs></defs>
    <g id="Welcome" stroke="none" stroke-width="1" fill="none" fill-rule="evenodd">
        <g id="Artboard" transform="translate(-168.000000, -41.000000)" fill-rule="nonzero" fill="#000000">
            <path d="M178.672209,46.7279188 C179.623232,45.6805182 180.561902,45 181.475,45 C183.976373,45 186,47.018276 186,49.5203933 C186,51.6321243 184.732927,53.7470782 182.390415,55.6464054 C181.287102,56.5674041 179.951736,57.42076 178.968401,57.8948765 C178.894829,57.9316203 178.822273,57.9523269 178.734669,57.9698276 C178.664185,57.9839081 178.598703,57.992629 178.549695,57.9975243 L178.444846,57.9969488 C178.396328,57.9915641 178.329401,57.9825173 178.258756,57.9695506 C178.205041,57.9596911 178.156748,57.9488242 178.03366,57.9046401 C177.031475,57.4098741 175.707432,56.5637539 174.614178,55.658933 C172.269129,53.7482987 171,51.6251194 171,49.5203933 C171,47.0213117 173.020589,45 175.525,45 C176.660843,45 177.53317,45.5922216 178.442309,46.7802621 C178.447159,46.7889972 178.479713,46.8362143 178.528388,46.9048574 C178.591705,46.8284616 178.640612,46.7683328 178.672209,46.7279188 Z" id="Shape-Copy-3"></path>
        </g>
    </g>
</svg>