<?xml version="1.0" encoding="UTF-8"?>
<svg width="20px" height="20px" viewBox="0 0 20 20" version="1.1" xmlns="http://www.w3.org/2000/svg" xmlns:xlink="http://www.w3.org/1999/xlink">
    <!-- Generator: Sketch 42 (36781) - http://www.bohemiancoding.com/sketch -->
    <title>normal-like</title>
    <desc>Created with Sketch.</desc>
    <defs></defs>
    <g id="Welcome" stroke="none" stroke-width="1" fill="none" fill-rule="evenodd">
        <g id="Artboard" transform="translate(-138.000000, -41.000000)" fill-rule="nonzero" fill="#000000">
            <path d="M148.538769,56.9892037 C149.444472,56.5551754 150.710383,55.7462045 151.755093,54.8741906 C153.889303,53.143697 155,51.2897605 155,49.5203933 C155,47.5711543 153.42468,46 151.475,46 C150.946336,46 150.178264,46.5568375 149.447478,47.3571146 C149.410013,47.4088984 149.316956,47.5218192 149.163258,47.7046804 C149.053719,47.8349578 148.94999,47.9572508 148.880605,48.0386949 L148.473446,48.5166149 L148.098784,48.0128155 C148.035146,47.9272427 147.940242,47.7986191 147.844995,47.6675055 C147.689485,47.4531986 147.605742,47.3336095 147.609236,47.3283206 C146.911649,46.4237938 146.287411,46 145.525,46 C143.572954,46 142,47.5735165 142,49.5203933 C142,51.2834995 143.113546,53.1463974 145.248792,54.8861135 C146.283451,55.7424206 147.54201,56.5466935 148.398523,56.9773419 C148.402956,56.9786702 148.41845,56.9821565 148.439291,56.9859819 C148.459634,56.9897159 148.480826,56.9930945 148.500353,56.9959314 C148.513021,56.9939724 148.526275,56.9916996 148.538769,56.9892037 Z M148.672209,46.7279188 C149.623232,45.6805182 150.561902,45 151.475,45 C153.976373,45 156,47.018276 156,49.5203933 C156,51.6321243 154.732927,53.7470782 152.390415,55.6464054 C151.287102,56.5674041 149.951736,57.42076 148.968401,57.8948765 C148.894829,57.9316203 148.822273,57.9523269 148.734669,57.9698276 C148.664185,57.9839081 148.598703,57.992629 148.549695,57.9975243 L148.444846,57.9969488 C148.396328,57.9915641 148.329401,57.9825173 148.258756,57.9695506 C148.205041,57.9596911 148.156748,57.9488242 148.03366,57.9046401 C147.031475,57.4098741 145.707432,56.5637539 144.614178,55.658933 C142.269129,53.7482987 141,51.6251194 141,49.5203933 C141,47.0213117 143.020589,45 145.525,45 C146.660843,45 147.53317,45.5922216 148.442309,46.7802621 C148.447159,46.7889972 148.479713,46.8362143 148.528388,46.9048574 C148.591705,46.8284616 148.640612,46.7683328 148.672209,46.7279188 Z" id="Shape-Copy-3"></path>
        </g>
    </g>
</svg>