<?xml version="1.0" encoding="UTF-8" standalone="no"?>
<svg width="20px" height="20px" viewBox="0 0 20 20" version="1.1" xmlns="http://www.w3.org/2000/svg" xmlns:xlink="http://www.w3.org/1999/xlink">
    <!-- Generator: Sketch 3.8.3 (29802) - http://www.bohemiancoding.com/sketch -->
    <title>inbox</title>
    <desc>Created with Sketch.</desc>
    <defs></defs>
    <g id="Page-3" stroke="none" stroke-width="1" fill="none" fill-rule="evenodd">
        <g id="Icons" transform="translate(-47.000000, -46.000000)" fill="#000000">
            <g id="inbox" transform="translate(48.000000, 49.000000)">
                <path d="M7,7 L1,7 L1,11 C1,12.1 1.9,13 3,13 L15,13 C16.1,13 17,12.1 17,11 L17,7 L12,7 C12,7.55 11.56,8 11,8 L8,8 C7.44,8 7,7.56 7,7 L7,7 Z" id="Shape" opacity="0.119999997"></path>
                <polygon id="Shape-Copy-9" opacity="0.119999997" points="1 12 17 12 17 13 1 13"></polygon>
                <path d="M16.3832432,6 L11,6 L11,7 C11,7.55 10.56,8 10,8 L8,8 C7.44,8 7,7.56 7,7 L7,6 L1.60810811,6 L2.94,2.8 C3.34,1.8 4.48,1 5.48,1 L12.52,1 C13.52,1 14.65,1.8 15.06,2.8 L16.3832432,6 Z M17.7702128,6 L18,6 L18,11.5 C18,12.88 16.88,14 15.5,14 L2.5,14 C1.1,14 0,12.9 0,11.5 L0,6 L0.229787234,6 L2.16,1.8 C2.63,0.8 3.9,0 5,0 L13,0 C14.1,0 15.37,0.8 15.84,1.8 L17.7702128,6 Z M6,7 L1,7 L1,11 C1,12.1 1.9,13 3,13 L15,13 C16.1,13 17,12.1 17,11 L17,7 L12,7 C12,8.1 11.1,9 10,9 L8,9 C6.9,9 6,8.1 6,7 Z" id="Shape"></path>
            </g>
        </g>
    </g>
</svg>