<?xml version="1.0" encoding="UTF-8"?>
<svg width="20px" height="20px" viewBox="0 0 20 20" version="1.1" xmlns="http://www.w3.org/2000/svg" xmlns:xlink="http://www.w3.org/1999/xlink">
    <!-- Generator: Sketch 41.1 (35376) - http://www.bohemiancoding.com/sketch -->
    <title>settings</title>
    <desc>Created with Sketch.</desc>
    <defs></defs>
    <g id="Welcome" stroke="none" stroke-width="1" fill="none" fill-rule="evenodd">
        <g id="Artboard" transform="translate(-121.000000, -11.000000)" fill="#000000">
            <g id="Group" transform="translate(121.000000, 11.000000)">
                <path d="M16.983598,10 C16.935593,10.729329 16.783334,11.430182 16.541583,12.087797 L18.38205,12.907225 L17.975314,13.820771 L16.134359,13.001125 C15.839933,13.557884 15.477476,14.073118 15.058056,14.535758 L16.458924,15.986399 L15.739585,16.681057 L14.33879,15.230492 C13.86228,15.633262 13.334852,15.977674 12.767534,16.252698 L13.522355,18.120943 L12.595171,18.49555 L11.840469,16.627598 C11.255421,16.819593 10.638627,16.941563 10,16.983598 L10,19 L9,19 L9,16.983598 C8.361373,16.941563 7.744579,16.819593 7.159531,16.627598 L6.404829,18.49555 L5.477645,18.120943 L6.232466,16.252698 C5.665148,15.977674 5.13772,15.633262 4.66121,15.230492 L3.260415,16.681057 L2.541076,15.986399 L3.941944,14.535758 C3.522524,14.073118 3.160067,13.557884 2.865641,13.001125 L1.024686,13.820771 L0.61795,12.907225 L2.458417,12.087797 C2.216666,11.430182 2.064407,10.729329 2.016402,10 L0,10 L0,9 L2.016402,9 C2.064407,8.270671 2.216666,7.569818 2.458417,6.912203 L0.61795,6.092775 L1.024686,5.179229 L2.865641,5.998875 C3.160067,5.442116 3.522524,4.926882 3.941944,4.464242 L2.541076,3.013601 L3.260415,2.318943 L4.66121,3.769508 C5.13772,3.366738 5.665148,3.022326 6.232466,2.747302 L5.477645,0.879057 L6.404829,0.50445 L7.159531,2.372402 C7.744579,2.180407 8.361373,2.058437 9,2.016402 L9,0 L10,0 L10,2.016402 C10.638627,2.058437 11.255421,2.180407 11.840469,2.372402 L12.595171,0.50445 L13.522355,0.879057 L12.767534,2.747302 C13.334852,3.022326 13.86228,3.366738 14.33879,3.769508 L15.739585,2.318943 L16.458924,3.013601 L15.058056,4.464242 C15.477476,4.926882 15.839933,5.442116 16.134359,5.998875 L17.975314,5.179229 L18.38205,6.092775 L16.541583,6.912203 C16.783334,7.569818 16.935593,8.270671 16.983598,9 L19,9 L19,10 L16.983598,10 Z M9.5,16 C13.089851,16 16,13.089851 16,9.5 C16,5.910149 13.089851,3 9.5,3 C5.910149,3 3,5.910149 3,9.5 C3,13.089851 5.910149,16 9.5,16 Z" id="Combined-Shape"></path>
                <polygon id="Combined-Shape" points="10.0259752 10.0128094 16 10.0128094 16 8.98719057 10.0259752 8.98719057 6.88510079 3 6 3.40074108 9.19966477 9.5 6 15.5992589 6.88510079 16"></polygon>
            </g>
        </g>
    </g>
</svg>