<?xml version="1.0" encoding="UTF-8"?>
<svg width="20px" height="20px" viewBox="0 0 20 20" version="1.1" xmlns="http://www.w3.org/2000/svg" xmlns:xlink="http://www.w3.org/1999/xlink">
    <!-- Generator: Sketch 41.2 (35397) - http://www.bohemiancoding.com/sketch -->
    <title>normal-back</title>
    <desc>Created with Sketch.</desc>
    <defs></defs>
    <g id="Welcome" stroke="none" stroke-width="1" fill="none" fill-rule="evenodd">
        <g id="Artboard" transform="translate(-179.000000, -132.000000)" fill="#000000">
            <circle id="Oval-2" opacity="0.100000001" cx="188.5" cy="141.5" r="9.5"></circle>
            <path d="M183.228342,141.917432 C183.090892,141.826571 183,141.670603 183,141.5 C183,141.401144 183.029444,141.308989 183.079705,141.231406 C183.102883,141.184724 183.133647,141.141229 183.171881,141.102996 L188.121012,136.153865 C188.316445,135.958432 188.638876,135.964005 188.828427,136.153556 C189.023689,136.348819 189.018783,136.670308 188.828119,136.860971 L184.68909,141 L193.498769,141 C193.775591,141 194,141.231934 194,141.5 C194,141.776142 193.770249,142 193.498769,142 L184.725123,142 L188.828119,146.102996 C189.018783,146.293659 189.023689,146.615149 188.828427,146.810411 C188.638876,146.999962 188.316445,147.005535 188.121012,146.810103 L183.228342,141.917432 Z" id="Combined-Shape"></path>
        </g>
    </g>
</svg>