<?xml version="1.0" encoding="UTF-8"?>
<svg width="20px" height="20px" viewBox="0 0 20 20" version="1.1" xmlns="http://www.w3.org/2000/svg" xmlns:xlink="http://www.w3.org/1999/xlink">
    <!-- Generator: Sketch 41.1 (35376) - http://www.bohemiancoding.com/sketch -->
    <title>normal-more</title>
    <desc>Created with Sketch.</desc>
    <defs></defs>
    <g id="Welcome" stroke="none" stroke-width="1" fill="none" fill-rule="evenodd">
        <g id="Artboard" transform="translate(-111.000000, -11.000000)" fill="#000000">
            <g id="Group-3" transform="translate(112.000000, 12.000000)">
                <circle id="Oval-2" opacity="0.14" cx="9" cy="9" r="9"></circle>
                <path d="M9,14 C9.552285,14 10,13.552285 10,13 C10,12.447715 9.552285,12 9,12 C8.447715,12 8,12.447715 8,13 C8,13.552285 8.447715,14 9,14 Z M9,10 C9.552285,10 10,9.552285 10,9 C10,8.447715 9.552285,8 9,8 C8.447715,8 8,8.447715 8,9 C8,9.552285 8.447715,10 9,10 Z M9,6 C9.552285,6 10,5.552285 10,5 C10,4.447715 9.552285,4 9,4 C8.447715,4 8,4.447715 8,5 C8,5.552285 8.447715,6 9,6 Z" id="Combined-Shape"></path>
            </g>
        </g>
    </g>
</svg>