<?xml version="1.0" encoding="UTF-8"?>
<svg width="20px" height="20px" viewBox="0 0 20 20" version="1.1" xmlns="http://www.w3.org/2000/svg" xmlns:xlink="http://www.w3.org/1999/xlink">
    <!-- Generator: Sketch 41.2 (35397) - http://www.bohemiancoding.com/sketch -->
    <title>normal-saved</title>
    <desc>Created with Sketch.</desc>
    <defs></defs>
    <g id="Welcome" stroke="none" stroke-width="1" fill="none" fill-rule="evenodd">
        <g id="Artboard" transform="translate(-201.000000, -71.000000)" fill="#000000">
            <g id="Group-Copy-8" transform="translate(201.000000, 73.000000)">
                <path d="M3.96008779,4.69510058 C4.65244775,2.00055556 7.09132718,0 10,0 C13.44625,0 16.25,2.80375 16.25,6.25 L16.25,7.5 C18.3175,7.5 20,9.1825 20,11.25 C20,13.3175 18.4617332,14.8148148 16.25,15 L11.6102876,15 C13.5400858,13.2151007 14.5740741,11.2746357 14.5740741,9.33796296 C14.5740741,6.76268663 12.4934486,4.68518519 9.9212963,4.68518519 C9.519381,4.68518519 9.07045616,4.88893305 8.54131205,5.24755619 C8.34572416,5.3801143 8.14260264,5.53249147 7.93411822,5.70100563 C7.67937879,5.90690687 7.42927862,6.12643125 7.19357341,6.34589435 C7.0517941,6.47790384 6.94549222,6.5813723 6.87785323,6.64419441 C6.82145313,6.58184443 6.72233249,6.47733278 6.58855675,6.3444706 C6.36663041,6.12405981 6.12666222,5.90364637 5.87606499,5.69679461 C5.5378189,5.41759438 5.20582934,5.18437856 4.88473335,5.01169109 C4.56127171,4.83773136 4.25404213,4.72741404 3.96008779,4.69510058 Z" id="Combined-Shape"></path>
                <path d="M2.33422533,5.78346624 C2.79477839,5.60056522 3.29767222,5.5 3.82500305,5.5 C4.89256482,5.5 6.46581096,7.23722364 6.46581096,7.23722364 C6.57973633,7.39318699 6.69075046,7.55323144 6.80000305,7.7144426 C6.80000305,7.7144426 6.94181409,7.52252058 7.17609709,7.25167826 C7.17609709,7.25167826 8.91648334,5.5 9.77500305,5.5 C11.9975031,5.5 13.8000031,7.29169701 13.8000031,9.5203933 C13.8000031,11.3755522 12.7139284,13.262385 10.685149,15 L5,15 C3.39004448,14.8919734 1.9569541,14.1468797 1.04223428,12.9973571 C0.786293115,12.6382394 0.568740135,12.2762244 0.390659684,11.9127943 C0.139092462,11.3307599 0,10.6871177 0,10 C0,8.22420374 0.933368305,6.66781605 2.33422533,5.78346624 Z" id="Combined-Shape" opacity="0.800000012"></path>
            </g>
        </g>
    </g>
</svg>